<svg width="114" height="17" viewBox="0 0 114 17" fill="none" xmlns="http://www.w3.org/2000/svg">
<path d="M3.28 9.92H6.864L6.496 12H0.176L2.16 0.768H4.896L3.28 9.92ZM8.057 7.52C8.217 6.60267 8.53167 5.79733 9.001 5.104C9.47033 4.41067 10.0357 3.87733 10.697 3.504C11.3583 3.13067 12.057 2.944 12.793 2.944C13.4223 2.944 13.9503 3.072 14.377 3.328C14.8037 3.584 15.113 3.92 15.305 4.336L15.529 3.072H18.265L16.681 12H13.945L14.185 10.736C13.8437 11.152 13.4117 11.488 12.889 11.744C12.3663 12 11.7903 12.128 11.161 12.128C10.5317 12.128 9.97167 11.984 9.481 11.696C9.001 11.408 8.62767 11.0027 8.361 10.48C8.09433 9.94667 7.961 9.32267 7.961 8.608C7.961 8.26667 7.993 7.904 8.057 7.52ZM14.745 7.536C14.777 7.344 14.793 7.168 14.793 7.008C14.793 6.48533 14.6383 6.07467 14.329 5.776C14.0303 5.47733 13.6463 5.328 13.177 5.328C12.633 5.328 12.137 5.52533 11.689 5.92C11.241 6.304 10.9583 6.83733 10.841 7.52C10.809 7.712 10.793 7.888 10.793 8.048C10.793 8.57067 10.9423 8.98667 11.241 9.296C11.5503 9.59467 11.9343 9.744 12.393 9.744C12.937 9.744 13.433 9.54667 13.881 9.152C14.329 8.75733 14.617 8.21867 14.745 7.536ZM22.7404 4.336C23.0817 3.92 23.5137 3.584 24.0364 3.328C24.559 3.072 25.1297 2.944 25.7484 2.944C26.7084 2.944 27.4817 3.25867 28.0684 3.888C28.6657 4.50667 28.9644 5.35467 28.9644 6.432C28.9644 6.77333 28.9324 7.136 28.8684 7.52C28.7084 8.43733 28.3937 9.248 27.9244 9.952C27.455 10.6453 26.8897 11.184 26.2284 11.568C25.567 11.9413 24.8684 12.128 24.1324 12.128C23.503 12.128 22.975 12.0053 22.5484 11.76C22.1217 11.504 21.8124 11.168 21.6204 10.752L21.3964 12H18.6604L20.7564 0.16H23.4924L22.7404 4.336ZM26.1004 7.52C26.1324 7.33867 26.1484 7.17333 26.1484 7.024C26.1484 6.49067 25.9937 6.07467 25.6844 5.776C25.3857 5.47733 25.0017 5.328 24.5324 5.328C23.9884 5.328 23.4924 5.52533 23.0444 5.92C22.5964 6.31467 22.3084 6.85333 22.1804 7.536C22.1484 7.728 22.1324 7.904 22.1324 8.064C22.1324 8.58667 22.2817 8.99733 22.5804 9.296C22.879 9.59467 23.263 9.744 23.7324 9.744C24.2764 9.744 24.7724 9.54667 25.2204 9.152C25.679 8.74667 25.9724 8.20267 26.1004 7.52Z" fill="#010101"/>
<path d="M37.9429 0.768L35.9589 12H33.2229L35.2069 0.768H37.9429ZM44.9656 2.976C45.8616 2.976 46.5656 3.22667 47.0776 3.728C47.5896 4.22933 47.8456 4.928 47.8456 5.824C47.8456 6.12267 47.8136 6.44267 47.7496 6.784L46.8216 12H44.1016L44.9656 7.152C44.9976 6.97067 45.0136 6.81067 45.0136 6.672C45.0136 6.224 44.8856 5.87733 44.6296 5.632C44.3843 5.38667 44.0376 5.264 43.5896 5.264C43.0563 5.264 42.6083 5.42933 42.2456 5.76C41.883 6.09067 41.6483 6.55467 41.5416 7.152V7.072L40.6776 12H37.9416L39.5096 3.072H42.2456L42.0376 4.272C42.3896 3.87733 42.8163 3.56267 43.3176 3.328C43.8296 3.09333 44.379 2.976 44.9656 2.976ZM53.1869 9.44L56.2589 3.072H59.1869L54.4349 12H51.0429L49.4589 3.072H52.3709L53.1869 9.44ZM64.3065 2.944C65.4585 2.944 66.3705 3.25867 67.0425 3.888C67.7252 4.50667 68.0665 5.35467 68.0665 6.432C68.0665 6.784 68.0398 7.09867 67.9865 7.376C67.9438 7.62133 67.8798 7.88267 67.7945 8.16H61.6025C61.5918 8.224 61.5865 8.32533 61.5865 8.464C61.5865 8.93333 61.7145 9.29067 61.9705 9.536C62.2265 9.78133 62.5678 9.904 62.9945 9.904C63.6772 9.904 64.1998 9.616 64.5625 9.04H67.4745C67.0905 9.94667 66.4665 10.688 65.6025 11.264C64.7385 11.84 63.7678 12.128 62.6905 12.128C61.5385 12.128 60.6158 11.808 59.9225 11.168C59.2398 10.528 58.8985 9.65867 58.8985 8.56C58.8985 8.22933 58.9305 7.888 58.9945 7.536C59.1545 6.608 59.4852 5.79733 59.9865 5.104C60.4878 4.41067 61.1118 3.87733 61.8585 3.504C62.6052 3.13067 63.4212 2.944 64.3065 2.944ZM65.2985 6.768C65.3198 6.61867 65.3305 6.51733 65.3305 6.464C65.3305 6.03733 65.1972 5.712 64.9305 5.488C64.6638 5.25333 64.3118 5.136 63.8745 5.136C63.4052 5.136 62.9892 5.28 62.6265 5.568C62.2745 5.84533 62.0185 6.24533 61.8585 6.768H65.2985ZM75.6219 2.976C76.5179 2.976 77.2219 3.22667 77.7339 3.728C78.2459 4.22933 78.5019 4.928 78.5019 5.824C78.5019 6.12267 78.4699 6.44267 78.4059 6.784L77.4779 12H74.7579L75.6219 7.152C75.6539 6.97067 75.6699 6.81067 75.6699 6.672C75.6699 6.224 75.5419 5.87733 75.2859 5.632C75.0405 5.38667 74.6939 5.264 74.2459 5.264C73.7125 5.264 73.2645 5.42933 72.9019 5.76C72.5392 6.09067 72.3045 6.55467 72.1979 7.152V7.072L71.3339 12H68.5979L70.1659 3.072H72.9019L72.6939 4.272C73.0459 3.87733 73.4725 3.56267 73.9739 3.328C74.4859 3.09333 75.0352 2.976 75.6219 2.976ZM83.0911 8.928C83.0805 8.98133 83.0751 9.05067 83.0751 9.136C83.0751 9.328 83.1285 9.46667 83.2351 9.552C83.3525 9.63733 83.5391 9.68 83.7951 9.68H84.7711L84.3551 12H82.9631C81.1711 12 80.2751 11.248 80.2751 9.744C80.2751 9.52 80.3018 9.23733 80.3551 8.896L80.9951 5.344H79.9071L80.3071 3.072H81.3951L81.7791 0.896H84.5151L84.1311 3.072H85.9231L85.5231 5.344H83.7311L83.0911 8.928ZM89.9591 12.128C89.1911 12.128 88.5085 11.9733 87.9111 11.664C87.3138 11.3547 86.8498 10.9173 86.5191 10.352C86.1991 9.78667 86.0391 9.13067 86.0391 8.384C86.0391 7.37067 86.2791 6.448 86.7591 5.616C87.2391 4.784 87.9005 4.13333 88.7431 3.664C89.5858 3.184 90.5245 2.944 91.5591 2.944C92.3271 2.944 93.0098 3.104 93.6071 3.424C94.2151 3.73333 94.6845 4.17067 95.0151 4.736C95.3458 5.30133 95.5111 5.95733 95.5111 6.704C95.5111 7.728 95.2658 8.656 94.7751 9.488C94.2951 10.3093 93.6285 10.9547 92.7751 11.424C91.9325 11.8933 90.9938 12.128 89.9591 12.128ZM90.3431 9.776C90.7911 9.776 91.1911 9.64267 91.5431 9.376C91.9058 9.09867 92.1831 8.74667 92.3751 8.32C92.5778 7.88267 92.6791 7.42933 92.6791 6.96C92.6791 6.42667 92.5351 6.016 92.2471 5.728C91.9591 5.44 91.5965 5.296 91.1591 5.296C90.7005 5.296 90.2951 5.43467 89.9431 5.712C89.6018 5.97867 89.3351 6.33067 89.1431 6.768C88.9511 7.20533 88.8551 7.664 88.8551 8.144C88.8551 8.66667 88.9938 9.072 89.2711 9.36C89.5485 9.63733 89.9058 9.776 90.3431 9.776ZM100.083 4.688C100.499 4.15467 100.973 3.73867 101.507 3.44C102.051 3.13067 102.616 2.976 103.203 2.976L102.691 5.872H101.939C101.256 5.872 100.717 6.02133 100.323 6.32C99.928 6.608 99.6666 7.12 99.5386 7.856L98.8026 12H96.0666L97.6346 3.072H100.371L100.083 4.688ZM106.526 3.072L107.614 8.656L110.654 3.072H113.614L105.694 16.24H102.75L105.598 11.696L103.486 3.072H106.526Z" fill="#545EE1"/>
</svg>
